HIERARCHY
ROOT RootJoint
{
    OFFSET   0.000000   0.000000   0.000000
    CHANNELS 6 Xposition Yposition Zposition Xrotation Yrotation Zrotation
    JOINT lHip
    {
        OFFSET   0.100000  -0.051395   0.000000
        CHANNELS 3 Xrotation Yrotation Zrotation
        JOINT lKnee
        {
            OFFSET   0.000000  -0.410000   0.000000
            CHANNELS 3 Xrotation Yrotation Zrotation
            JOINT lAnkle
            {
                OFFSET   0.000000  -0.390000   0.000000
                CHANNELS 3 Xrotation Yrotation Zrotation
                JOINT lToeJoint
                {
                    OFFSET   0.000000  -0.050000   0.130000
                    CHANNELS 3 Xrotation Yrotation Zrotation
                    End Site
                    {
                        OFFSET   0.010000   0.002000   0.060000
                    }
                }
            }
        }
    }
    JOINT rHip
    {
        OFFSET  -0.100000  -0.051395   0.000000
        CHANNELS 3 Xrotation Yrotation Zrotation
        JOINT rKnee
        {
            OFFSET   0.000000  -0.410000   0.000000
            CHANNELS 3 Xrotation Yrotation Zrotation
            JOINT rAnkle
            {
                OFFSET   0.000000  -0.390000   0.000000
                CHANNELS 3 Xrotation Yrotation Zrotation
                JOINT rToeJoint
                {
                    OFFSET   0.000000  -0.050000   0.130000
                    CHANNELS 3 Xrotation Yrotation Zrotation
                    End Site
                    {
                        OFFSET  -0.010000   0.002000   0.060000
                    }
                }
            }
        }
    }
    JOINT pelvis_lowerback
    {
        OFFSET   0.000000   0.093605   0.000000
        CHANNELS 3 Xrotation Yrotation Zrotation
        JOINT lowerback_torso
        {
            OFFSET   0.000000   0.100000   0.000000
            CHANNELS 3 Xrotation Yrotation Zrotation
            JOINT torso_head
            {
                OFFSET   0.000000   0.282350   0.000000
                CHANNELS 3 Xrotation Yrotation Zrotation
                End Site
                {
                    OFFSET   0.000000   0.192650   0.000000
                }
            }
            JOINT lTorso_Clavicle
            {
                OFFSET   0.001000   0.157500   0.000000
                CHANNELS 3 Xrotation Yrotation Zrotation
                JOINT lShoulder
                {
                    OFFSET   0.117647   0.000000   0.000000
                    CHANNELS 3 Xrotation Yrotation Zrotation
                    JOINT lElbow
                    {
                        OFFSET   0.245000   0.000000   0.000000
                        CHANNELS 3 Xrotation Yrotation Zrotation
                        JOINT lWrist
                        {
                            OFFSET   0.240000   0.000000   0.000000
                            CHANNELS 3 Xrotation Yrotation Zrotation
                            End Site
                            {
                                OFFSET   0.116353  -0.002500   0.000000
                            }
                        }
                    }
                }
            }
            JOINT rTorso_Clavicle
            {
                OFFSET  -0.001000   0.157500   0.000000
                CHANNELS 3 Xrotation Yrotation Zrotation
                JOINT rShoulder
                {
                    OFFSET  -0.117647   0.000000   0.000000
                    CHANNELS 3 Xrotation Yrotation Zrotation
                    JOINT rElbow
                    {
                        OFFSET  -0.245000   0.000000   0.000000
                        CHANNELS 3 Xrotation Yrotation Zrotation
                        JOINT rWrist
                        {
                            OFFSET  -0.240000   0.000000   0.000000
                            CHANNELS 3 Xrotation Yrotation Zrotation
                            End Site
                            {
                                OFFSET  -0.116353  -0.002500   0.000000
                            }
                        }
                    }
                }
            }
        }
    }
}
MOTION
Frames: 8
Frame Time:   0.010000
  3.702135   0.954110   2.661010 172.881304  -4.509914 -179.428490 -13.712562 -17.531120  -0.319870 -11.890598 -10.242393   3.146279  11.176404  -7.361619 -17.969355  -0.000003  -0.000005   0.000000   7.609457  -5.435881  -6.573456  20.921971  10.185240  -2.896926  17.508120   6.025932  18.839374   0.000001  -0.000004   0.000002   0.408755   2.103906  -0.193687   1.369197   8.493789  -0.641956  -5.530220  -7.845996  -4.863985  -0.181067  -1.780666  -9.335732  27.538437  17.072408 -53.239908 -60.746399 -81.169818 -93.041073  27.452890  -8.881116   1.854691   0.092926   4.714126  11.827435  38.294814  35.899235  26.695210  53.568657  75.962109 -69.784915  13.156084  18.207847  -2.276996
  3.699892   0.953378   2.640614 172.693624  -4.568085 -179.411514 -13.544162 -18.089378  -0.311754 -13.155229  -9.882684   3.726442  11.352336  -7.094299 -18.882049  -0.000003  -0.000008   0.000000   6.529050  -5.191064  -6.580896  24.548236  10.331747  -3.291759  17.598462   5.697186  18.678626   0.000003  -0.000006   0.000001   0.371276   2.029872  -0.175077   1.223934   8.192047  -0.564755  -5.696324  -7.722071  -4.673387  -0.185211  -1.738641  -9.355990  27.565031  17.488354 -54.015985 -59.343578 -81.105946 -91.616030  27.684432  -8.460434   2.140189   0.081527   4.996597  11.880732  40.102476  36.473387  25.439366  53.223681  75.967023 -69.528552  13.271770  18.213637  -2.289679
  3.697522   0.950190   2.620194 172.802648  -4.633008 -179.289103 -13.373962 -17.848518  -0.596427 -12.879181  -9.563724   3.691211  11.674957  -6.947782 -18.998236  -0.000003  -0.000010  -0.000001   5.358650  -4.412291  -6.784323  28.842039  10.362023  -3.229455  17.049021   5.145950  18.605171   0.000004  -0.000005   0.000002   0.424642   1.912252  -0.195193   1.458219   7.729966  -0.664582  -6.059837  -7.450060  -4.349206  -0.195357  -1.608099  -9.371623  27.289649  17.584813 -54.534187 -58.269936 -81.056098 -90.532931  27.757576  -8.292192   2.520435   0.071186   5.255472  11.918168  41.112093  36.742746  24.970239  51.454048  75.837010 -67.679922  13.342652  18.177429  -1.861190
  3.695088   0.945774   2.599762 173.060219  -4.700634 -179.113642 -13.199365 -17.209141  -1.028479 -11.831257  -9.266142   3.341453  12.069105  -6.859129 -18.716622  -0.000002  -0.000011  -0.000003   4.148971  -3.361429  -7.068411  33.468673  10.361920  -2.934905  16.180423   4.483987  18.566788   0.000006  -0.000003   0.000003   0.523334   1.772786  -0.234451   1.880174   7.186644  -0.849080  -6.523613  -7.106441  -3.956249  -0.208474  -1.433294  -9.384910  26.861044  17.523960 -54.923087 -57.361130 -81.013154 -89.621051  27.752050  -8.250582   2.948697   0.061355   5.502549  11.947693  41.714120  36.870004  24.903459  49.034134  75.616851 -65.097147  13.391682  18.120667  -1.212245
  3.692654   0.941359   2.579331 173.318021  -4.767473 -178.937861 -13.020332 -16.571039  -1.461102 -10.782378  -8.974923   2.986533  12.462737  -6.768557 -18.435681  -0.000001  -0.000012  -0.000004   2.945621  -2.304832  -7.329977  38.095418  10.385189  -2.641297  15.312109   3.822680  18.518384   0.000007  -0.000001   0.000003   0.621924   1.633253  -0.273466   2.299879   6.641993  -1.029333  -6.989415  -6.765995  -3.560790  -0.221549  -1.258487  -9.398156  26.432156  17.465883 -55.312326 -56.461190 -80.967972 -88.718035  27.746212  -8.209014   3.376919   0.051392   5.749621  11.977273  42.317335  36.996693  24.834897  46.693671  75.370437 -62.593738  13.441370  18.064436  -0.563458
  3.690144   0.936205   2.558649 173.705336  -4.864300 -178.691071 -12.677077 -15.742857  -1.935651  -9.384864  -9.008792   2.293718  12.539105  -6.868421 -17.038686  -0.000001  -0.000014  -0.000005   1.774235  -1.384530  -7.687566  42.740626  10.596448  -2.285852  14.485238   3.317644  18.410094   0.000007  -0.000001   0.000003   0.750823   1.481197  -0.336171   2.845057   6.050274  -1.306191  -7.449159  -6.423729  -3.089187  -0.228023  -1.145164  -9.369648  25.843640  17.295859 -55.603545 -55.553126 -80.923105 -87.814950  27.660682  -8.242283   3.701499   0.044093   5.912166  12.016556  42.559229  37.017185  25.129360  43.903766  75.026792 -59.595431  13.679453  17.935668  -0.037205
  3.687479   0.929577   2.537468 174.352105  -5.019503 -178.301553 -12.007158 -14.536543  -2.500504  -7.300029  -9.714493   0.948845  12.002597  -7.375207 -13.409044  -0.000001  -0.000016  -0.000004   0.661957  -0.738102  -8.266123  47.424952  11.169875  -1.833021  13.740743   3.125670  18.197053   0.000004  -0.000004   0.000000   0.940272   1.303961  -0.446265   3.640355   5.362213  -1.776493  -7.895736  -6.075677  -2.467927  -0.221352  -1.154804  -9.257699  24.937149  16.898284 -55.702441 -54.619205 -80.880973 -86.902114  27.416469  -8.425481   3.818376   0.042347   5.905668  12.075151  42.080187  36.821690  26.149759  40.253907  74.485123 -55.646171  14.293557  17.662849   0.246003
  3.684815   0.922948   2.516286 175.000073  -5.170312 -177.910208 -11.328532 -13.336728  -3.076877  -5.227878 -10.467859  -0.372082  11.498899  -7.914676  -9.779895  -0.000002  -0.000018  -0.000004  -0.443647  -0.080599  -8.831977  52.114327  11.777718  -1.428594  12.995669   2.936476  17.981570   0.000002  -0.000006  -0.000002   1.129368   1.126363  -0.555766   4.429119   4.667749  -2.236671  -8.345801  -5.732467  -1.844347  -0.214662  -1.164432  -9.145749  24.031825  16.502253 -55.807679 -53.693993 -80.836505 -85.997988  27.172517  -8.609171   3.934519   0.040607   5.899167  12.133745  41.606796  36.619422  27.165447  36.873132  73.880826 -51.965586  14.908149  17.392938   0.531835
